<svg width="415.262695" height="323.033508" viewBox="0 0 415.263 323.034" fill="none" xmlns="http://www.w3.org/2000/svg" xmlns:xlink="http://www.w3.org/1999/xlink">
	<desc>
			Created with Pixso.
	</desc>
	<defs/>
	<path id="Vector" d="M22.16 190.58C32.36 180.14 47.28 166.44 56.5 165.32C62.16 162.46 70.23 160.69 78.86 158.88L83.26 157.94C83.97 154.72 85.54 152.55 88.1 151.34C103.75 143.96 120.73 132.14 137.62 118.52C137.51 117.55 137.56 116.53 137.84 115.46C138.87 111.45 142.38 108.59 145.67 109.08C146.62 109.23 147.47 109.44 148.4 109.59C153.41 105.32 158.34 100.98 163.21 96.56C162.89 95.32 162.77 93.97 163.15 92.5C164.18 88.48 167.69 85.63 170.97 86.12C171.28 86.16 172.36 86.33 173.99 86.64C179.73 81.24 185.41 75.79 191.04 70.28C190.99 69.43 191.04 68.55 191.27 67.64C192.3 63.61 195.81 60.75 199.1 61.24C199.42 61.29 199.7 61.36 200.01 61.41C205.35 56.07 210.66 50.72 215.94 45.33C215.94 44.59 215.94 43.82 216.15 43.03C217.18 39.02 220.69 36.16 223.97 36.65L224.39 36.73C245.93 14.81 249.66 11.57 253.91 12.2C256.72 12.62 259.27 13.2 261.74 13.84C263.15 12.25 264.56 10.7 265.96 9.08C270.33 4.04 278.35 -1.58 291.63 0.4C311.75 3.4 335.48 22.62 349.1 35.12C366.14 30.82 380.08 29.36 390.36 30.89C400.86 32.45 404.86 36.64 406.37 39.03C406.47 39.16 406.6 39.25 406.69 39.39C414.81 53.58 416.1 78.03 414.84 101.88C416.15 126.96 411.96 146.6 409.54 155.58C409.86 156.19 410.1 156.85 410.26 157.54C412.27 167.32 402.3 202.62 394.21 209.41C373.43 226.88 354.07 237.33 333.58 248.39C310.4 260.9 286.43 273.84 255.79 298.71C229.39 320.15 183.87 327.91 130.9 320.01C60.32 309.49 -8.76 272.91 0.9 235.23C11.54 193.75 17.09 190.03 22.16 190.58ZM27.45 198.02C35.61 221.44 96.01 242.41 151.78 250.72C170.4 253.5 187.17 254.65 199.02 253.96C215.43 253 231.48 249.76 246.95 245.11C238.42 226.1 215.72 219.96 191.91 216.41C182.66 215.04 173 214.03 162.77 212.98C152.32 211.9 141.51 210.78 130.94 209.21C105.44 205.4 73.99 198.06 54.97 174.95C50 176.93 38.69 186.43 27.45 198.02ZM117.3 150.84C112.67 154.14 108.3 157.27 104.51 160.09C99.33 163.94 89.88 165.93 79.88 168.04C74.71 169.14 69.5 170.27 65.27 171.58C82.53 190.06 109.14 196.33 133.32 199.93C143.19 201.4 153.35 202.47 163.25 203.49C165.87 193.35 169.97 183.26 174.06 177.32C161.96 166.71 143.53 155.49 117.3 150.84ZM152.3 125.53C146.14 130.12 139.94 134.64 133.7 139.11C156.83 145.38 173.43 156.31 184.62 166.6C191 160.64 197.4 154.71 203.84 148.82C193.03 139.89 176.66 130.69 152.3 125.53ZM167.68 113.84C189.72 120.1 204.86 129.53 215.07 138.65C220.21 134.02 225.24 129.53 230.12 125.22C214.01 113.55 193.79 106.91 180.7 103.56C176.25 107.15 171.93 110.54 167.68 113.84ZM241.64 115.17C247.7 109.93 253.82 104.74 259.98 99.6C248.2 91.83 231.73 83.71 209.98 78.64C205 83.1 199.95 87.49 194.84 91.8C209.06 96.16 227.06 103.48 241.64 115.17ZM197.72 76.22C193.87 80.01 189.91 83.84 185.84 87.72C190.26 84.01 194.63 80.26 198.95 76.44C198.54 76.37 198.14 76.28 197.72 76.22ZM222.33 51.57C218.65 55.31 214.79 59.23 210.7 63.34C211.46 63.5 212.16 63.69 212.91 63.86C217.08 59.99 221.21 56.07 225.3 52.1C224.29 51.92 223.34 51.74 222.33 51.57ZM272.24 89.6C277.94 85.01 283.7 80.5 289.52 76.07C277.44 68.1 259.99 59.63 235.92 54.19C231.66 58.4 227.43 62.49 223.24 66.44C244.84 72.57 260.91 81.44 272.24 89.6ZM252.8 21.7C249.98 23.68 242.96 30.63 235.04 38.63C236.09 38.84 237.14 39.05 238.16 39.26C243.68 33.62 249.1 27.87 254.42 22.05C253.87 21.94 253.38 21.8 252.8 21.7ZM289.25 9.68C282.13 8.62 276.79 10.27 272.91 14.74C264.94 23.92 256.73 32.91 248.28 41.68C273.1 48.29 290.6 57.99 302.43 66.68C319.22 54.81 332.87 46.93 343.21 43.24C330.48 31.43 307.55 12.41 289.25 9.68ZM397.89 44.12C397.1 43.28 394.54 41.14 387.99 40.16C382.91 39.4 374.51 39.31 361.52 41.75C377.03 45.95 382.62 59.94 387.07 71.47C389.93 78.86 392.62 85.83 396.59 86.65C399.88 83.83 400.46 63.72 397.89 44.12ZM405.79 88.65C405 90.38 404.05 91.85 402.92 92.96C400.58 95.22 397.61 96.2 394.54 95.74C385.39 94.38 381.86 85.25 378.13 75.58C373.66 64.04 369.05 52.11 355.38 50.07C347.73 48.93 331.97 56.86 309.79 72.47C313.51 75.68 316.28 78.52 318.33 80.8C319.1 80.66 319.87 80.65 320.62 80.74C325.42 81.46 328.1 86.79 326.59 92.64C325.09 98.5 319.99 102.66 315.18 101.95C310.97 101.32 308.4 97.15 308.84 92.18C305.29 88.33 301.42 84.78 297.25 81.57C291.31 86.06 285.43 90.63 279.62 95.31C283.08 98.18 286.35 101.26 289.41 104.53C290.23 104.37 291.05 104.34 291.85 104.45C296.65 105.16 299.32 110.48 297.82 116.35C296.32 122.21 291.21 126.37 286.41 125.65C282.27 125.04 279.74 120.98 280.07 116.13C276.24 112.1 272.1 108.39 267.67 105.01C261.51 110.1 255.09 115.49 248.44 121.23C252.71 125.43 256.41 130.16 259.48 135.33C259.72 135.34 259.95 135.31 260.19 135.35C265.01 136.07 267.68 141.39 266.18 147.25C264.68 153.1 259.57 157.27 254.76 156.55C250.05 155.85 247.41 150.69 248.75 144.95C245.63 139.72 241.75 135.02 237.23 130.97C232.12 135.45 226.88 140.1 221.51 144.91C225.26 148.95 228.54 153.39 231.33 158.16C231.53 158.18 231.73 158.15 231.92 158.18C236.72 158.89 239.39 164.23 237.89 170.08C236.39 175.93 231.28 180.1 226.49 179.39C221.74 178.68 219.1 173.47 220.48 167.69C217.66 163.03 214.31 158.74 210.49 154.88C203.94 160.86 197.43 166.87 190.95 172.92C194.47 176.67 197.69 180.7 200.59 184.96C201.01 184.95 201.43 184.93 201.83 184.99C206.65 185.71 209.31 191.04 207.81 196.89C206.31 202.74 201.21 206.91 196.4 206.2C191.9 205.53 189.31 200.77 190.26 195.34C187.35 191.13 184.1 187.18 180.55 183.51C177.37 188.48 174.49 196.56 172.5 204.47C179.79 205.21 187.05 206.09 194.28 207.13C221.33 211.16 247.1 218.42 256.42 242.08C301.28 226.66 340.27 199.7 366.45 179.58C371.29 158.87 379.65 146.72 387.87 135.14C394.73 125.44 401.22 116.26 405.32 101.98C405.59 97.52 405.76 93.04 405.79 88.65ZM395.49 139.94C389.22 148.79 383.22 157.44 378.8 169.91C380.98 168.16 383.03 166.52 384.9 165C393.23 158.3 397.61 154.83 400.57 153.24C402.89 144.06 404.4 134.78 405.08 125.52C402.02 130.74 398.73 135.38 395.49 139.94ZM133.28 310.73C183.51 318.22 226.12 311.29 250.22 291.74C281.66 266.21 307.19 252.43 329.71 240.27C349.69 229.48 368.57 219.29 388.49 202.56C392.62 198.9 400.37 173.74 401.08 163.61C398.28 165.71 394.32 168.9 390.45 172.02C358.36 197.87 283.21 258.38 198.57 263.32C186.1 264.04 168.63 262.86 149.41 260C106.26 253.57 34.93 235.24 19.76 205.32C17.62 210.47 14.43 219.81 10.12 236.59C2.91 264.72 61.62 300.05 133.28 310.73Z" fill="#000000" fill-opacity="1.000000" fill-rule="nonzero"/>
</svg>
